<svg width="375" height="120" viewBox="0 0 375 120" fill="none" xmlns="http://www.w3.org/2000/svg">
<g clip-path="url(#clip0_38_16267)">
<path d="M138.244 71.7731H138.354C138.633 72.6678 139.11 73.4158 139.784 74.0171C140.459 74.6038 141.192 75.0218 141.984 75.2711C142.776 75.5058 143.62 75.6231 144.514 75.6231C145.292 75.6231 145.871 75.4984 146.252 75.2491C146.634 74.9851 146.824 74.6698 146.824 74.3031C146.824 73.9071 146.619 73.5844 146.208 73.3351C145.798 73.0858 145.284 72.9098 144.668 72.8071C144.067 72.6898 143.407 72.5431 142.688 72.3671C141.984 72.1911 141.324 72.0004 140.708 71.7951C140.107 71.5898 139.601 71.2524 139.19 70.7831C138.78 70.3138 138.574 69.7344 138.574 69.0451C138.574 68.1504 138.956 67.4098 139.718 66.8231C140.496 66.2364 141.596 65.9431 143.018 65.9431C144.91 65.9431 146.619 66.5518 148.144 67.7691V70.6291H148.034C146.773 68.6784 145.05 67.7031 142.864 67.7031C141.398 67.7031 140.664 68.1211 140.664 68.9571C140.664 69.4264 140.943 69.7931 141.5 70.0571C142.072 70.3064 142.762 70.5044 143.568 70.6511C144.39 70.7831 145.204 70.9518 146.01 71.1571C146.817 71.3478 147.499 71.6998 148.056 72.2131C148.628 72.7118 148.914 73.3791 148.914 74.2151C148.914 75.1391 148.526 75.9018 147.748 76.5031C146.971 77.0898 145.82 77.3831 144.294 77.3831C143.048 77.3831 141.874 77.1851 140.774 76.7891C139.674 76.3931 138.831 75.8944 138.244 75.2931V71.7731ZM164.519 75.6231C164.944 75.6231 165.355 75.5351 165.751 75.3591C166.147 75.1684 166.469 74.9484 166.719 74.6991C166.968 74.4351 167.188 74.1784 167.379 73.9291C167.569 73.6651 167.709 73.4378 167.797 73.2471L167.929 72.9831H168.039V75.7331C168.009 75.7771 167.958 75.8358 167.885 75.9091C167.826 75.9824 167.679 76.1144 167.445 76.3051C167.225 76.4958 166.983 76.6644 166.719 76.8111C166.455 76.9578 166.11 77.0898 165.685 77.2071C165.259 77.3244 164.812 77.3831 164.343 77.3831C163.081 77.3831 162.15 77.0458 161.549 76.3711C160.962 75.6818 160.669 74.5524 160.669 72.9831V67.9231H158.909V67.8131L162.539 63.5231H162.649V66.1631H168.369L167.137 67.9231H162.649V73.3131C162.649 74.8531 163.272 75.6231 164.519 75.6231ZM179.46 74.6331C179.46 74.0318 179.57 73.5258 179.79 73.1151C180.01 72.6898 180.355 72.3524 180.824 72.1031C181.308 71.8391 181.748 71.6484 182.144 71.5311C182.555 71.3991 183.127 71.2598 183.86 71.1131C185.474 70.7758 186.552 70.4898 187.094 70.2551C187.652 70.0204 187.93 69.6538 187.93 69.1551C187.93 68.7298 187.71 68.3851 187.27 68.1211C186.845 67.8424 186.244 67.7031 185.466 67.7031C184.366 67.7031 183.237 68.1138 182.078 68.9351C180.934 69.7418 180.098 70.8271 179.57 72.1911H179.46V69.0231C179.974 68.1138 180.78 67.3731 181.88 66.8011C182.98 66.2291 184.234 65.9431 185.642 65.9431C187.109 65.9431 188.224 66.3171 188.986 67.0651C189.749 67.7984 190.13 68.8544 190.13 70.2331V74.0831V77.0531V77.1631H188.15V77.0531V74.7211V74.5011H188.04C187.996 74.5744 187.93 74.6771 187.842 74.8091C187.754 74.9411 187.549 75.1758 187.226 75.5131C186.904 75.8358 186.559 76.1291 186.192 76.3931C185.826 76.6424 185.334 76.8698 184.718 77.0751C184.117 77.2804 183.479 77.3831 182.804 77.3831C181.763 77.3831 180.942 77.1264 180.34 76.6131C179.754 76.0851 179.46 75.4251 179.46 74.6331ZM181.55 74.4351C181.55 74.7871 181.682 75.0731 181.946 75.2931C182.225 75.5131 182.606 75.6231 183.09 75.6231C184.205 75.6231 185.239 75.1831 186.192 74.3031C187.146 73.4231 187.798 72.5651 188.15 71.7291V71.6191C187.344 71.9858 185.987 72.3671 184.08 72.7631C183.2 72.9391 182.555 73.1591 182.144 73.4231C181.748 73.6871 181.55 74.0244 181.55 74.4351ZM209.196 67.9231C207.817 67.9231 206.402 68.9498 204.95 71.0031V76.8331V76.9431H202.97V76.8331V71.6851V66.2731V66.1631H204.95V66.2731V68.3631H204.994H205.06C205.515 67.7324 206.109 67.1751 206.842 66.6911C207.575 66.1924 208.419 65.9431 209.372 65.9431C209.636 65.9431 209.893 65.9651 210.142 66.0091C210.406 66.0384 210.597 66.0751 210.714 66.1191L210.89 66.1631V68.4511H210.78C210.399 68.0991 209.871 67.9231 209.196 67.9231ZM226.151 75.6231C226.577 75.6231 226.987 75.5351 227.383 75.3591C227.779 75.1684 228.102 74.9484 228.351 74.6991C228.601 74.4351 228.821 74.1784 229.011 73.9291C229.202 73.6651 229.341 73.4378 229.429 73.2471L229.561 72.9831H229.671V75.7331C229.642 75.7771 229.591 75.8358 229.517 75.9091C229.459 75.9824 229.312 76.1144 229.077 76.3051C228.857 76.4958 228.615 76.6644 228.351 76.8111C228.087 76.9578 227.743 77.0898 227.317 77.2071C226.892 77.3244 226.445 77.3831 225.975 77.3831C224.714 77.3831 223.783 77.0458 223.181 76.3711C222.595 75.6818 222.301 74.5524 222.301 72.9831V67.9231H220.541V67.8131L224.171 63.5231H224.281V66.1631H230.001L228.769 67.9231H224.281V73.3131C224.281 74.8531 224.905 75.6231 226.151 75.6231Z" fill="#151515"/>
<rect x="18.5" y="6.18945" width="329.034" height="329.034" rx="164.517" stroke="#151515"/>
</g>
<defs>
<clipPath id="clip0_38_16267">
<rect width="375" height="120" fill="white"/>
</clipPath>
</defs>
</svg>
