<svg width="68" height="63" viewBox="0 0 68 63" fill="none" xmlns="http://www.w3.org/2000/svg">
<g filter="url(#filter0_d_100_20090)">
<ellipse cx="34" cy="27.5" rx="30" ry="27.5" fill="#252D37"/>
</g>
<path fill-rule="evenodd" clip-rule="evenodd" d="M33.9995 36.4866L29.615 31.9866L25.265 27.4866C22.9117 24.9996 22.9117 21.1071 25.265 18.6201C26.4174 17.5126 27.9782 16.9339 29.5741 17.0223C31.1699 17.1108 32.6572 17.8585 33.68 19.0866L33.9995 19.4001L34.316 19.0731C35.3389 17.845 36.8262 17.0973 38.422 17.0088C40.0179 16.9204 41.5787 17.4991 42.731 18.6066C45.0844 21.0936 45.0844 24.9861 42.731 27.4731L38.381 31.9731L33.9995 36.4866Z" fill="#E68226" stroke="#E68226" stroke-width="1.5" stroke-linecap="round" stroke-linejoin="round"/>
<defs>
<filter id="filter0_d_100_20090" x="0" y="0" width="68" height="63" filterUnits="userSpaceOnUse" color-interpolation-filters="sRGB">
<feFlood flood-opacity="0" result="BackgroundImageFix"/>
<feColorMatrix in="SourceAlpha" type="matrix" values="0 0 0 0 0 0 0 0 0 0 0 0 0 0 0 0 0 0 127 0" result="hardAlpha"/>
<feOffset dy="4"/>
<feGaussianBlur stdDeviation="2"/>
<feComposite in2="hardAlpha" operator="out"/>
<feColorMatrix type="matrix" values="0 0 0 0 0 0 0 0 0 0 0 0 0 0 0 0 0 0 0.25 0"/>
<feBlend mode="normal" in2="BackgroundImageFix" result="effect1_dropShadow_100_20090"/>
<feBlend mode="normal" in="SourceGraphic" in2="effect1_dropShadow_100_20090" result="shape"/>
</filter>
</defs>
</svg>
